<svg viewBox="0 0 20 19.879" xmlns="http://www.w3.org/2000/svg" fill="none">
	<path id="Vector" d="M10 0C4.477 0 0 4.477 0 10C0 14.991 3.657 19.128 8.438 19.879L8.438 12.89L5.898 12.89L5.898 10L8.438 10L8.438 7.797C8.438 5.291 9.93 3.907 12.215 3.907C13.309 3.907 14.453 4.102 14.453 4.102L14.453 6.562L13.193 6.562C11.95 6.562 11.563 7.333 11.563 8.124L11.563 10L14.336 10L13.893 12.89L11.563 12.89L11.563 19.879C16.343 19.129 20 14.99 20 10C20 4.477 15.523 0 10 0Z" fill="currentColor"   />
</svg>
