<svg viewBox="0 0 12 12.6667" xmlns="http://www.w3.org/2000/svg"  fill="none" >
	<path id="Vector" d="M12 0L12 1.33333C12 7.75133 8.418 10.6667 4 10.6667L1.49533 10.6667C1.3825 11.3273 1.32829 11.9965 1.33333 12.6667L0 12.6667C0 11.758 0.0773333 10.9333 0.230667 10.1787C0.0773333 9.316 0 8.14533 0 6.66667C0 2.98467 2.98467 0 6.66667 0C8 0 9.33333 0.666667 12 0ZM6.66667 1.33333C5.25218 1.33333 3.89562 1.89524 2.89543 2.89543C1.89524 3.89562 1.33333 5.25218 1.33333 6.66667C1.33333 6.908 1.33533 7.14067 1.34 7.364C2.176 6.04533 3.40067 5.00333 5.00267 4.088L5.664 5.24533C3.76067 6.33333 2.498 7.56933 1.85067 9.33333L4 9.33333C8.01 9.33333 10.5807 6.68467 10.6647 1.592C9.75 1.68067 8.9 1.624 7.85133 1.46667C7.08467 1.35133 6.934 1.33333 6.66667 1.33333Z" fill="currentColor"  />
</svg>
